<svg xmlns="http://www.w3.org/2000/svg" width="110" height="110"><path fill="#cfcfcf" d="M71.429 47.857q0 .403-.02.806t-.06.804-.098.8-.138.795-.177.787-.215.777-.253.766-.29.752-.327.737-.362.72-.398.702-.431.681-.464.66-.497.635q-.255.312-.526.61-.271.3-.556.585t-.584.556q-.3.27-.61.527-.313.255-.637.496-.323.24-.659.464-.335.224-.681.431-.346.208-.702.398-.355.19-.72.362-.364.173-.737.327t-.752.29-.766.253-.777.215-.787.177q-.396.079-.794.138-.4.06-.8.099-.402.04-.805.059-.403.02-.806.02t-.806-.02-.804-.06-.8-.098-.795-.138-.787-.177-.777-.215-.766-.253-.752-.29-.737-.327-.72-.362-.702-.398-.681-.431-.66-.464q-.323-.24-.635-.496t-.61-.527q-.3-.271-.585-.556t-.556-.584q-.27-.299-.526-.61-.256-.312-.497-.636-.24-.324-.464-.66-.224-.335-.431-.68-.208-.347-.398-.703-.19-.355-.362-.72-.173-.364-.327-.737t-.29-.752-.253-.766-.215-.777-.177-.787q-.079-.395-.138-.794-.059-.4-.098-.8-.04-.402-.06-.805t-.02-.806.02-.806.06-.804.098-.8q.06-.4.138-.795t.177-.787q.098-.39.215-.777.117-.386.253-.766t.29-.752.327-.737.362-.72.398-.702.431-.681.464-.66.497-.635q.255-.312.526-.61.271-.3.556-.585t.584-.556q.3-.27.61-.526.313-.256.637-.496.323-.24.659-.465.335-.224.681-.431t.702-.398.72-.362.737-.327.752-.29.766-.253.777-.215.787-.177.794-.138.8-.098q.402-.04.805-.06t.806-.02.806.02.804.06q.402.04.8.098.4.06.795.138.396.079.787.177t.777.215.766.253.752.29.737.327.72.362.702.398.681.431.66.465.635.496.61.526q.3.271.585.556t.556.584q.27.3.526.61.256.313.497.637.24.324.464.659t.431.681.398.702.362.72.327.737.29.752.253.766.215.777.177.787.138.795q.059.398.098.8.04.401.06.804t.02.806"/><path fill="#fff" d="M67.143 47.857q0 .298-.015.596t-.044.594-.073.592-.101.587-.131.582-.159.574-.187.566-.214.556-.242.545-.268.532-.294.519-.319.503-.343.488-.366.47-.39.45q-.2.222-.41.432-.211.211-.432.411t-.452.39-.47.366-.487.344-.503.318q-.256.154-.519.294t-.532.268-.545.242-.556.214q-.28.1-.566.187t-.575.159-.581.13q-.292.059-.587.103-.295.043-.592.072-.296.03-.594.044Q55.298 60 55 60t-.596-.015-.594-.044-.592-.072-.587-.102-.581-.131-.575-.159-.566-.187-.556-.214-.545-.242-.532-.268-.519-.294-.503-.318-.487-.344-.47-.366-.452-.39q-.22-.2-.431-.41-.211-.211-.411-.432t-.39-.452-.366-.47-.343-.487-.32-.503-.293-.519-.268-.532-.242-.545-.214-.556-.187-.566-.159-.574q-.072-.29-.13-.582t-.102-.587-.073-.592-.044-.594-.015-.596.015-.596q.014-.297.044-.594t.073-.592.101-.587q.059-.292.131-.581.072-.29.159-.575t.187-.566q.1-.28.214-.556.115-.275.242-.545t.268-.532q.14-.263.294-.519.153-.255.319-.503.165-.248.343-.487.177-.24.366-.47.19-.23.39-.452.2-.22.41-.431.211-.211.432-.411t.452-.39.47-.366.487-.343.503-.32.519-.293.532-.268.545-.241.556-.215.566-.187.575-.159.581-.13.587-.102.592-.073.594-.044.596-.015.596.015.594.044.592.073.587.102.581.13q.29.073.575.16.285.086.566.186t.556.215.545.241.532.268.519.294.503.319.487.343q.24.177.47.367.23.189.452.389.22.2.431.41.211.212.411.432.2.221.39.452.189.23.366.47.178.239.343.487t.32.503.293.519.268.532.242.545.214.556.187.566.159.575.13.581q.059.293.102.587.044.295.073.592.03.297.044.594.015.298.015.596"/><path fill="none" stroke="#000" stroke-linejoin="round" stroke-width="2.4" d="M36.23 86.896q-1.142 0-2.27-.073-1.128-.068-2.348-.327V73.054q.957-.176 2.094-.264 1.143-.093 2.124-.093 1.319 0 2.427.19 1.113.191 1.914.65t1.25 1.21q.45.748.45 1.847 0 1.66-1.602 2.622 1.323.498 1.802 1.362.478.86.478 1.938 0 2.178-1.592 3.282-1.587 1.098-4.726 1.098Zm-1.581-6.22v3.579q.341.039.742.063.4.02.879.02 1.401 0 2.26-.4.86-.401.86-1.48 0-.962-.723-1.372-.718-.41-2.055-.41zm0-2.378h1.523q1.436 0 2.056-.371t.62-1.192q0-.84-.64-1.177-.64-.341-1.88-.341-.4 0-.859.01t-.82.048zm14.22 6.338q.44 0 .84-.02.401-.02.64-.058v-2.261q-.18-.04-.542-.078-.356-.044-.659-.044-.42 0-.79.053-.367.05-.65.19-.279.138-.44.377-.156.24-.156.6 0 .699.469.972.469.269 1.289.269Zm-.238-8.721q1.318 0 2.197.303.884.297 1.411.859.532.557.752 1.357.22.801.22 1.783v6.2q-.64.138-1.782.328-1.138.19-2.76.19-1.02 0-1.85-.18t-1.43-.591-.923-1.07q-.318-.659-.318-1.62 0-.918.371-1.558t.992-1.02 1.42-.547q.801-.171 1.66-.171.577 0 1.026.048.454.05.732.127v-.278q0-.762-.459-1.22-.459-.46-1.601-.46-.757 0-1.5.113-.741.107-1.278.307l-.381-2.397q.258-.083.65-.171.39-.093.849-.161.459-.069.967-.117.512-.054 1.035-.054Zm10.298 8.662q.82 0 1.157-.161.342-.161.342-.62 0-.362-.44-.63-.439-.269-1.337-.61-.699-.26-1.27-.538-.571-.283-.972-.673-.4-.391-.62-.928-.22-.542-.22-1.299 0-1.484 1.1-2.344 1.103-.86 3.022-.86.957 0 1.836.172.883.17 1.401.37l-.518 2.32q-.522-.18-1.132-.317-.606-.142-1.368-.142-1.401 0-1.401.777 0 .18.059.322.063.141.244.273.18.127.488.279.308.146.791.327.977.361 1.616.713.645.346 1.011.757.371.41.522.913.152.498.152 1.157 0 1.562-1.172 2.363-1.172.796-3.31.796-1.402 0-2.335-.24-.927-.239-1.284-.4l.498-2.417q.762.298 1.558.47.8.17 1.582.17Zm9.66 2.139h-2.978V76.198h2.979zm.28-13.56q0 .82-.533 1.29-.527.468-1.245.468-.723 0-1.255-.469-.527-.469-.527-1.289t.527-1.289q.532-.474 1.255-.474.718 0 1.245.474.532.469.532 1.29Zm2.02 8.3q0-1.142.37-2.148.372-1.01 1.07-1.762.703-.752 1.7-1.192 1-.44 2.28-.44.84 0 1.537.152.704.152 1.363.43l-.62 2.378q-.42-.156-.923-.278-.498-.122-1.118-.122-1.319 0-1.968.82-.65.82-.65 2.163 0 1.42.61 2.202.611.776 2.13.776.542 0 1.162-.097.62-.103 1.138-.322l.42 2.44q-.518.22-1.3.377-.78.161-1.718.161-1.44 0-2.48-.43t-1.715-1.167q-.669-.742-.981-1.753-.308-1.01-.308-2.187Z"/><path fill="#fff" d="M36.23 86.896q-1.142 0-2.27-.073-1.128-.068-2.348-.327V73.054q.957-.176 2.094-.264 1.143-.093 2.124-.093 1.319 0 2.427.19 1.113.191 1.914.65t1.25 1.21q.45.748.45 1.847 0 1.66-1.602 2.622 1.323.498 1.802 1.362.478.86.478 1.938 0 2.178-1.592 3.282-1.587 1.098-4.726 1.098m-1.581-6.22v3.579q.341.039.742.063.4.02.879.02 1.401 0 2.26-.4.86-.401.86-1.48 0-.962-.723-1.372-.718-.41-2.055-.41zm0-2.378h1.523q1.436 0 2.056-.371t.62-1.192q0-.84-.64-1.177-.64-.341-1.88-.341-.4 0-.859.01t-.82.048zm14.22 6.338q.44 0 .84-.02.401-.02.64-.058v-2.261q-.18-.04-.542-.078-.356-.044-.659-.044-.42 0-.79.053-.367.05-.65.19-.279.138-.44.377-.156.24-.156.6 0 .699.469.972.469.269 1.289.269m-.238-8.721q1.318 0 2.197.303.884.297 1.411.859.532.557.752 1.357.22.801.22 1.783v6.2q-.64.138-1.782.328-1.138.19-2.76.19-1.02 0-1.85-.18t-1.43-.591-.923-1.07q-.318-.659-.318-1.62 0-.918.371-1.558t.992-1.02 1.42-.547q.801-.171 1.66-.171.577 0 1.026.048.454.05.732.127v-.278q0-.762-.459-1.22-.459-.46-1.601-.46-.757 0-1.5.113-.741.107-1.278.307l-.381-2.397q.258-.083.65-.171.39-.093.849-.161.459-.069.967-.117.512-.054 1.035-.054m10.298 8.662q.82 0 1.157-.161.342-.161.342-.62 0-.362-.44-.63-.439-.269-1.337-.61-.699-.26-1.27-.538-.571-.283-.972-.673-.4-.391-.62-.928-.22-.542-.22-1.299 0-1.484 1.1-2.344 1.103-.86 3.022-.86.957 0 1.836.172.883.17 1.401.37l-.518 2.32q-.522-.18-1.132-.317-.606-.142-1.368-.142-1.401 0-1.401.777 0 .18.059.322.063.141.244.273.18.127.488.279.308.146.791.327.977.361 1.616.713.645.346 1.011.757.371.41.522.913.152.498.152 1.157 0 1.562-1.172 2.363-1.172.796-3.31.796-1.402 0-2.335-.24-.927-.239-1.284-.4l.498-2.417q.762.298 1.558.47.8.17 1.582.17m9.66 2.139h-2.978V76.198h2.979zm.28-13.56q0 .82-.533 1.29-.527.468-1.245.468-.723 0-1.255-.469-.527-.469-.527-1.289t.527-1.289q.532-.474 1.255-.474.718 0 1.245.474.532.469.532 1.29m2.02 8.3q0-1.142.37-2.148.372-1.01 1.07-1.762.703-.752 1.7-1.192 1-.44 2.28-.44.84 0 1.537.152.704.152 1.363.43l-.62 2.378q-.42-.156-.923-.278-.498-.122-1.118-.122-1.319 0-1.968.82-.65.82-.65 2.163 0 1.42.61 2.202.611.776 2.13.776.542 0 1.162-.097.62-.103 1.138-.322l.42 2.44q-.518.22-1.3.377-.78.161-1.718.161-1.44 0-2.48-.43t-1.715-1.167q-.669-.742-.981-1.753-.308-1.01-.308-2.187"/></svg>