<svg xmlns="http://www.w3.org/2000/svg" width="110" height="110"><path fill="none" stroke="#fff" stroke-linejoin="round" stroke-opacity=".698" stroke-width="4.28571" d="M72.143 47.857q0 .42-.02.841-.021.42-.063.84-.041.418-.103.834-.061.417-.144.83-.082.412-.184.82-.102.409-.224.811t-.264.8q-.142.396-.303.784-.161.39-.341.77t-.378.751q-.199.371-.415.732t-.45.711-.485.688-.517.663-.55.638-.58.609-.61.58-.637.55-.663.517-.688.485-.71.45q-.362.216-.733.415t-.751.378q-.38.18-.77.341-.389.161-.785.303t-.799.264-.81.224-.822.185-.829.143-.835.103-.839.062T55 65q-.42 0-.841-.02-.42-.02-.84-.062-.418-.04-.834-.103-.417-.061-.83-.143-.412-.082-.82-.185-.409-.102-.811-.224t-.8-.264q-.395-.142-.784-.303-.39-.161-.77-.34t-.751-.38q-.371-.198-.732-.414t-.711-.45-.688-.485q-.338-.25-.663-.517-.326-.267-.637-.55-.312-.283-.61-.58-.297-.298-.58-.61-.283-.311-.55-.637-.267-.325-.517-.663t-.485-.688-.45-.71-.415-.733-.378-.751-.341-.77-.303-.785-.264-.799-.224-.81-.184-.822-.144-.829-.103-.835-.062-.839-.02-.84q0-.422.02-.842t.062-.84q.041-.418.103-.834.061-.417.144-.83.082-.412.184-.82t.224-.811q.122-.403.264-.8.142-.395.303-.784t.341-.77.378-.751q.199-.371.415-.732t.45-.71.485-.689.517-.663.55-.637.58-.61.61-.58.637-.55.663-.517.688-.485.71-.45q.362-.216.733-.415t.751-.378q.38-.18.77-.34.389-.162.785-.304.396-.141.799-.264.402-.122.81-.224t.822-.184.829-.144.835-.103.839-.062q.42-.02.841-.02.42 0 .841.02.42.02.84.062.418.041.834.103.417.062.83.144.412.082.82.184.409.102.811.224t.8.264q.395.142.784.303.39.161.77.341t.751.378q.371.199.732.415.361.217.711.45.35.234.688.485.338.25.663.518.326.266.637.55.312.282.61.58.297.297.58.609.283.311.55.637.267.325.517.663t.485.688.45.71.415.733.378.752.341.769.303.785.264.799.224.81.184.822.144.829.103.835.062.839.02.841"/><path fill="#fff" fill-opacity=".349" d="M70 47.857q0 .368-.018.736t-.054.734-.09.731-.126.725q-.072.362-.162.719-.089.357-.196.71-.107.352-.23.698-.125.347-.266.687-.14.34-.298.673t-.331.658q-.174.325-.363.64-.19.316-.394.623-.205.306-.424.602-.22.295-.453.58t-.48.557-.508.534q-.26.26-.534.507-.272.248-.557.481-.285.234-.58.453-.296.22-.602.424-.307.205-.622.394-.316.19-.641.363t-.658.33-.673.3-.687.264-.699.231-.71.197q-.356.09-.718.16-.36.073-.725.127-.364.054-.73.09-.367.036-.735.054t-.736.018-.736-.018-.734-.054-.731-.09-.725-.126-.719-.161q-.357-.09-.71-.197-.352-.107-.698-.23-.347-.125-.687-.266-.34-.14-.673-.298t-.658-.331q-.325-.174-.64-.363-.316-.19-.623-.394-.306-.204-.601-.424-.296-.22-.58-.453-.286-.233-.558-.48-.273-.248-.534-.508-.26-.26-.507-.534-.248-.272-.481-.557-.234-.285-.453-.58-.22-.296-.424-.602-.205-.307-.394-.622-.19-.316-.363-.64-.173-.326-.33-.659-.158-.332-.3-.673-.14-.34-.264-.687-.124-.346-.231-.699-.107-.352-.196-.71-.09-.356-.162-.718-.072-.36-.126-.725-.054-.364-.09-.73-.036-.367-.054-.735T40 47.857t.018-.736.054-.734.09-.73q.054-.365.126-.726t.162-.719.196-.71.23-.698q.125-.347.266-.687.14-.34.298-.673t.331-.658q.174-.325.363-.64.19-.316.394-.622.205-.307.424-.602.22-.296.453-.58.233-.285.48-.558.248-.273.508-.533t.534-.508q.272-.247.557-.481t.58-.453q.296-.22.602-.424.307-.205.622-.394.316-.19.641-.363t.658-.33.673-.3.687-.264.699-.231.71-.196q.356-.09.718-.162.36-.071.725-.126.364-.054.73-.09.367-.036.735-.054t.736-.018.736.018.734.054.731.09q.364.055.725.126.362.072.719.162t.71.196q.352.107.698.231.347.124.687.265.34.14.673.298t.658.331q.325.174.64.363.316.19.623.394.306.205.601.424.296.22.58.453.286.234.558.48.273.248.534.509.26.26.507.533.248.273.481.557.234.285.453.58.22.296.424.603.205.306.394.622.19.315.363.64t.33.658.3.673q.14.34.264.687.124.346.231.699.107.352.196.71.09.357.162.718.072.36.126.725.054.364.09.73.036.367.054.735t.018.736"/><path fill="#fff" fill-opacity=".349" d="M65 42.143q0 .21-.02.42-.021.21-.062.416t-.103.408q-.06.201-.141.396-.08.194-.18.38t-.216.36q-.117.176-.25.339-.134.162-.283.311-.15.15-.312.283-.163.133-.338.25t-.36.216q-.186.1-.38.18-.195.08-.397.142-.201.061-.408.102t-.416.062-.42.02q-.21 0-.42-.02t-.416-.062q-.206-.04-.408-.102t-.396-.142-.38-.18q-.186-.099-.36-.216-.176-.117-.339-.25-.162-.134-.311-.283t-.283-.311-.25-.338-.216-.36q-.1-.187-.18-.381-.08-.195-.142-.396-.061-.202-.102-.408-.041-.207-.062-.416-.02-.21-.02-.42t.02-.42q.02-.21.062-.416.041-.207.102-.408.061-.202.142-.396.08-.195.18-.38.099-.186.216-.361t.25-.338.283-.312.311-.282.338-.25q.175-.118.361-.217.186-.1.38-.18.195-.08.396-.141.202-.061.408-.103.207-.04.416-.061.21-.02.42-.02t.42.02q.21.02.416.061.207.042.408.103.202.06.396.141.195.08.38.18.186.1.361.216.175.117.338.25.163.134.312.283.149.15.282.312.134.163.25.338.118.175.217.36.1.186.18.38.08.195.141.397.062.201.103.408t.061.416.021.42"/><path fill="none" stroke="#000" stroke-linejoin="round" stroke-width="2.4" d="M27.53 86.896q-1.142 0-2.27-.073-1.128-.068-2.348-.327V73.054q.957-.176 2.094-.264 1.143-.093 2.124-.093 1.319 0 2.427.19 1.113.191 1.914.65t1.25 1.21q.45.748.45 1.847 0 1.66-1.602 2.622 1.323.498 1.802 1.362.478.86.478 1.938 0 2.178-1.592 3.282-1.587 1.098-4.726 1.098Zm-1.581-6.22v3.579q.341.039.742.063.4.02.879.02 1.401 0 2.26-.4.86-.401.86-1.48 0-.962-.723-1.372-.717-.41-2.055-.41zm0-2.378h1.523q1.436 0 2.056-.371t.62-1.192q0-.84-.64-1.177-.64-.341-1.88-.341-.4 0-.859.01t-.82.048zm19.182 8.056q-.762.22-1.963.41-1.196.191-2.52.191-1.337 0-2.231-.356-.889-.362-1.411-1.011-.518-.655-.737-1.553-.22-.898-.22-1.977v-5.86h2.983v5.498q0 1.44.376 2.08.381.64 1.421.64.322 0 .679-.03.361-.029.644-.073v-8.115h2.979zm9.539-4.98q0-2.876-2.12-2.876-.458 0-.913.122-.449.117-.727.298v5.42q.22.039.557.068.341.03.742.03 1.22 0 1.84-.84t.62-2.222Zm3.042.083q0 1.26-.371 2.28-.372 1.02-1.075 1.743-.698.718-1.718 1.109-1.016.385-2.32.385-.537 0-1.128-.048-.59-.05-1.162-.132-.566-.078-1.089-.186-.517-.112-.918-.234V71.677l2.979-.479v5.24q.498-.22 1.04-.342t1.162-.122q1.118 0 1.978.39t1.44 1.113q.581.718.879 1.729.303 1.01.303 2.25Zm9.038-.083q0-2.876-2.12-2.876-.458 0-.913.122-.449.117-.727.298v5.42q.22.039.557.068.341.03.742.03 1.22 0 1.84-.84t.62-2.222Zm3.042.083q0 1.26-.371 2.28-.372 1.02-1.075 1.743-.698.718-1.718 1.109-1.016.385-2.32.385-.537 0-1.128-.048-.59-.05-1.162-.132-.566-.078-1.089-.186-.517-.112-.918-.234V71.677l2.979-.479v5.24q.498-.22 1.04-.342t1.162-.122q1.118 0 1.978.39t1.44 1.113q.581.718.879 1.729.303 1.01.303 2.25Zm6.499 5.459q-1.3-.02-2.11-.278-.81-.264-1.284-.733-.469-.469-.64-1.138-.166-.673-.166-1.513V71.677l2.979-.479v11.46q0 .396.059.718.063.322.229.542.17.22.488.361.322.137.864.176zm1.617-5.381q0-1.401.43-2.451t1.128-1.748q.703-.698 1.611-1.06.913-.361 1.875-.361 2.237 0 3.535 1.372 1.304 1.367 1.304 4.028 0 .26-.02.572-.019.307-.043.546H80.97q.098.923.86 1.465.761.537 2.04.537.82 0 1.607-.146.79-.151 1.294-.371l.4 2.417q-.24.122-.64.244-.4.117-.893.205-.488.093-1.05.151-.556.059-1.118.059-1.421 0-2.47-.42t-1.744-1.147q-.688-.733-1.02-1.729-.328-1-.328-2.163Zm7.002-1.138q-.02-.38-.131-.742-.108-.361-.337-.64-.23-.278-.581-.458-.352-.181-.87-.181-.502 0-.864.17-.356.172-.596.45-.239.278-.37.65-.132.37-.191.751z"/><path fill="#fff" d="M27.53 86.896q-1.142 0-2.27-.073-1.128-.068-2.348-.327V73.054q.957-.176 2.094-.264 1.143-.093 2.124-.093 1.319 0 2.427.19 1.113.191 1.914.65t1.25 1.21q.45.748.45 1.847 0 1.66-1.602 2.622 1.323.498 1.802 1.362.478.86.478 1.938 0 2.178-1.592 3.282-1.587 1.098-4.726 1.098m-1.581-6.22v3.579q.341.039.742.063.4.02.879.02 1.401 0 2.26-.4.86-.401.86-1.48 0-.962-.723-1.372-.717-.41-2.055-.41zm0-2.378h1.523q1.436 0 2.056-.371t.62-1.192q0-.84-.64-1.177-.64-.341-1.88-.341-.4 0-.859.01t-.82.048zm19.182 8.056q-.762.22-1.963.41-1.196.191-2.52.191-1.337 0-2.231-.356-.889-.362-1.411-1.011-.518-.655-.737-1.553-.22-.898-.22-1.977v-5.86h2.983v5.498q0 1.44.376 2.08.381.64 1.421.64.322 0 .679-.03.361-.029.644-.073v-8.115h2.979zm9.539-4.98q0-2.876-2.12-2.876-.458 0-.913.122-.449.117-.727.298v5.42q.22.039.557.068.341.03.742.03 1.22 0 1.84-.84t.62-2.222m3.042.083q0 1.26-.371 2.28-.372 1.02-1.075 1.743-.698.718-1.718 1.109-1.016.385-2.32.385-.537 0-1.128-.048-.59-.05-1.162-.132-.566-.078-1.089-.186-.517-.112-.918-.234V71.677l2.979-.479v5.24q.498-.22 1.04-.342t1.162-.122q1.118 0 1.978.39t1.44 1.113q.581.718.879 1.729.303 1.01.303 2.25m9.038-.083q0-2.876-2.12-2.876-.458 0-.913.122-.449.117-.727.298v5.42q.22.039.557.068.341.03.742.03 1.22 0 1.84-.84t.62-2.222m3.042.083q0 1.26-.371 2.28-.372 1.02-1.075 1.743-.698.718-1.718 1.109-1.016.385-2.32.385-.537 0-1.128-.048-.59-.05-1.162-.132-.566-.078-1.089-.186-.517-.112-.918-.234V71.677l2.979-.479v5.24q.498-.22 1.04-.342t1.162-.122q1.118 0 1.978.39t1.44 1.113q.581.718.879 1.729.303 1.01.303 2.25m6.499 5.459q-1.3-.02-2.11-.278-.81-.264-1.284-.733-.469-.469-.64-1.138-.166-.673-.166-1.513V71.677l2.979-.479v11.46q0 .396.059.718.063.322.229.542.17.22.488.361.322.137.864.176zm1.617-5.381q0-1.401.43-2.451t1.128-1.748q.703-.698 1.611-1.06.913-.361 1.875-.361 2.237 0 3.535 1.372 1.304 1.367 1.304 4.028 0 .26-.02.572-.019.307-.043.546H80.97q.098.923.86 1.465.761.537 2.04.537.82 0 1.607-.146.79-.151 1.294-.371l.4 2.417q-.24.122-.64.244-.4.117-.893.205-.488.093-1.05.151-.556.059-1.118.059-1.421 0-2.47-.42t-1.744-1.147q-.688-.733-1.02-1.729-.328-1-.328-2.163m7.002-1.138q-.02-.38-.131-.742-.108-.361-.337-.64-.23-.278-.581-.458-.352-.181-.87-.181-.502 0-.864.17-.356.172-.596.45-.239.278-.37.65-.132.37-.191.751z"/></svg>