<svg xmlns="http://www.w3.org/2000/svg" width="110" height="110"><path fill="#ffe419" d="M33.196 54.894q6.458-45.365 34.32-21.897T51.771 70.54q.1-18.968-18.575-15.646"/><path fill="#cfb914" d="M30.792 54.552Q34.178 30.765 43.7 24.69q10.085-6.434 25.382 6.45 15.296 12.884 10.67 23.916-4.368 10.415-27.234 17.795-.228.073-.465.1t-.476.01-.469-.085q-.23-.066-.443-.175t-.4-.257-.343-.33q-.155-.183-.271-.392t-.19-.437q-.12-.37-.117-.758.044-8.347-3.73-11.525t-11.991-1.717q-.236.042-.475.037t-.473-.056q-.233-.051-.452-.147-.22-.096-.416-.233t-.361-.31-.295-.374q-.129-.201-.216-.424t-.129-.458q-.068-.383-.013-.768m4.809.684-2.405-.342-.425-2.39q10.457-1.861 15.97 2.783 5.515 4.644 5.459 15.265l-2.429-.012-.746-2.312q20.742-6.694 24.246-15.05 3.246-7.74-9.32-18.323-12.565-10.584-19.64-6.07-7.639 4.874-10.71 26.451"/><path fill="none" stroke="#000" stroke-linejoin="round" stroke-width="2.4" d="M40.26 86.994q-3.379 0-5.151-1.88-1.768-1.88-1.768-5.337 0-1.723.537-3.071.542-1.353 1.48-2.28.942-.928 2.24-1.407 1.3-.483 2.823-.483.879 0 1.597.132.722.127 1.26.298.541.17.903.351.361.18.517.279l-.898 2.52q-.64-.343-1.49-.582-.849-.24-1.928-.24-.723 0-1.411.24t-1.22.772-.855 1.372q-.318.84-.318 2.036 0 .962.21 1.792t.679 1.43q.474.601 1.23.953.762.346 1.841.346.684 0 1.221-.078.542-.083.962-.19.42-.113.737-.25.323-.14.581-.263l.86 2.5q-.66.4-1.86.723-1.197.317-2.78.317Zm16.28-5.557q0 1.24-.361 2.27-.361 1.026-1.04 1.759t-1.631 1.133q-.947.395-2.129.395-1.157 0-2.11-.395-.951-.4-1.63-1.133t-1.06-1.758q-.38-1.03-.38-2.27t.39-2.261q.39-1.02 1.08-1.739.693-.722 1.64-1.123.952-.4 2.07-.4 1.143 0 2.09.4.952.4 1.63 1.123.68.718 1.06 1.739.381 1.02.381 2.26Zm-3.042 0q0-1.381-.551-2.172-.547-.791-1.568-.791t-1.582.79q-.557.792-.557 2.173 0 1.377.557 2.188.562.81 1.582.81t1.568-.81q.551-.81.551-2.188Zm11.681-2.602q-.4-.098-.942-.205-.537-.113-1.157-.113-.279 0-.67.05-.39.048-.59.107v8.042H58.84v-9.961q.801-.279 1.89-.528 1.089-.253 2.427-.253.244 0 .58.034.343.029.68.078.341.049.678.122.342.068.586.166zm2.102-2.28q.757-.22 1.958-.41 1.201-.191 2.52-.191 1.343 0 2.231.352.889.351 1.407.99.522.64.742 1.52.22.878.22 1.957v5.943H73.38v-5.581q0-1.44-.38-2.036-.382-.601-1.422-.601-.317 0-.678.03t-.64.068v8.12H67.28z"/><path fill="#fff" d="M40.26 86.994q-3.379 0-5.151-1.88-1.768-1.88-1.768-5.337 0-1.723.537-3.071.542-1.353 1.48-2.28.942-.928 2.24-1.407 1.3-.483 2.823-.483.879 0 1.597.132.722.127 1.26.298.541.17.903.351.361.18.517.279l-.898 2.52q-.64-.343-1.49-.582-.849-.24-1.928-.24-.723 0-1.411.24t-1.22.772-.855 1.372q-.318.84-.318 2.036 0 .962.21 1.792t.679 1.43q.474.601 1.23.953.762.346 1.841.346.684 0 1.221-.078.542-.083.962-.19.42-.113.737-.25.323-.14.581-.263l.86 2.5q-.66.4-1.86.723-1.197.317-2.78.317m16.28-5.557q0 1.24-.361 2.27-.361 1.026-1.04 1.759t-1.631 1.133q-.947.395-2.129.395-1.157 0-2.11-.395-.951-.4-1.63-1.133t-1.06-1.758q-.38-1.03-.38-2.27t.39-2.261q.39-1.02 1.08-1.739.693-.722 1.64-1.123.952-.4 2.07-.4 1.143 0 2.09.4.952.4 1.63 1.123.68.718 1.06 1.739.381 1.02.381 2.26m-3.042 0q0-1.381-.551-2.172-.547-.791-1.568-.791t-1.582.79q-.557.792-.557 2.173 0 1.377.557 2.188.562.81 1.582.81t1.568-.81q.551-.81.551-2.188m11.681-2.602q-.4-.098-.942-.205-.537-.113-1.157-.113-.279 0-.67.05-.39.048-.59.107v8.042H58.84v-9.961q.801-.279 1.89-.528 1.089-.253 2.427-.253.244 0 .58.034.343.029.68.078.341.049.678.122.342.068.586.166zm2.102-2.28q.757-.22 1.958-.41 1.201-.191 2.52-.191 1.343 0 2.231.352.889.351 1.407.99.522.64.742 1.52.22.878.22 1.957v5.943H73.38v-5.581q0-1.44-.38-2.036-.382-.601-1.422-.601-.317 0-.678.03t-.64.068v8.12H67.28z"/></svg>