<svg xmlns="http://www.w3.org/2000/svg" width="110" height="110"><path fill="#fff" fill-opacity=".698" fill-rule="evenodd" d="m40.936 62.081 23.365 4.899.16.03q.173.028.348.039t.35.005.35-.03.344-.063.337-.097.326-.13.311-.16.294-.191.274-.219.251-.244.227-.268.198-.289.17-.306.139-.322q.061-.165.106-.334.045-.17.073-.343l2.964-18.212q.058-.355.044-.714-.014-.36-.1-.71-.086-.349-.24-.674-.153-.326-.369-.614l-11.93-15.956q-.447-.598-1.096-.967-.153-.087-.313-.158t-.327-.126-.338-.094-.345-.06-.35-.027-.35.008-.348.043-.342.076-.333.11-.32.141q-.157.08-.306.173-.148.094-.286.201-.139.108-.266.23-.127.12-.242.253-.115.132-.216.276-.101.143-.188.296l-9.55 16.813q-.128.226-.223.469L38.341 57.29q-.107.275-.167.563-.036.171-.055.346t-.021.35.014.35.047.347q.033.173.082.341.05.168.115.331t.146.319.177.302.206.284.233.262q.123.125.257.238.135.113.28.212.144.098.298.183t.316.153q.161.069.328.121.168.053.34.089m24.672-2.125 2.39-14.683-9.596-12.835-2.334-3.122-1.925 3.39-7.625 13.424-3.535 9.082-1.314 3.374 3.544.742 16.322 3.423 3.5.733z"/><path fill="#fff" fill-opacity=".486" d="M65.034 63.484 41.67 58.586l4.849-12.456 9.55-16.814 11.93 15.957z"/><path fill="none" stroke="#000" stroke-linejoin="round" stroke-width="2.4" d="M37.95 75.256q-2.178 0-3.15 1.21-.972 1.212-.972 3.311 0 1.02.24 1.85.244.83.722 1.431.479.596 1.197.928.722.327 1.684.327.518 0 .889-.02.37-.019.65-.077v-4.82h3.12v6.86q-.562.22-1.802.47-1.236.248-3.057.248-1.563 0-2.832-.478-1.27-.479-2.168-1.397-.899-.922-1.392-2.26-.488-1.343-.488-3.062 0-1.743.537-3.08.542-1.344 1.48-2.271.942-.928 2.212-1.407 1.269-.483 2.71-.483.98 0 1.767.132.791.127 1.362.298t.938.351q.37.18.532.279l-.898 2.5q-.64-.342-1.47-.591-.83-.25-1.812-.25Zm11.28 11.66q-1.298-.02-2.109-.278-.81-.264-1.284-.733-.469-.469-.64-1.138-.166-.673-.166-1.513V71.677l2.979-.479v11.46q0 .396.058.718.064.322.23.542.17.22.488.361.323.137.865.176zm6.14-2.28q.44 0 .84-.02t.64-.058v-2.261q-.181-.04-.543-.078-.356-.044-.659-.044-.42 0-.79.053-.367.05-.65.19-.279.138-.44.377-.156.24-.156.6 0 .699.469.972.469.269 1.289.269Zm-.24-8.721q1.319 0 2.198.303.884.297 1.411.859.532.557.752 1.357.22.801.22 1.783v6.2q-.64.138-1.782.328-1.138.19-2.76.19-1.02 0-1.85-.18t-1.43-.591-.923-1.07q-.318-.659-.318-1.62 0-.918.371-1.558t.992-1.02 1.42-.547q.801-.171 1.66-.171.577 0 1.026.048.454.05.732.127v-.278q0-.762-.459-1.22-.459-.46-1.601-.46-.757 0-1.5.113-.741.107-1.278.307l-.381-2.397q.258-.083.65-.171.39-.093.849-.161.459-.069.967-.117.512-.054 1.035-.054Zm10.299 8.662q.82 0 1.157-.161.342-.161.342-.62 0-.362-.44-.63-.439-.269-1.337-.61-.699-.26-1.27-.538-.571-.283-.972-.673-.4-.391-.62-.928-.22-.542-.22-1.299 0-1.484 1.1-2.344 1.103-.86 3.022-.86.957 0 1.836.172.883.17 1.401.37l-.518 2.32q-.522-.18-1.132-.317-.606-.142-1.368-.142-1.401 0-1.401.777 0 .18.059.322.063.141.244.273.18.127.488.279.308.146.791.327.977.361 1.616.713.645.346 1.011.757.371.41.522.913.152.498.152 1.157 0 1.562-1.172 2.363-1.172.796-3.31.796-1.402 0-2.335-.24-.927-.239-1.284-.4l.498-2.417q.762.298 1.558.47.8.17 1.582.17Zm9.7 0q.82 0 1.157-.161.342-.161.342-.62 0-.362-.44-.63-.439-.269-1.337-.61-.699-.26-1.27-.538-.571-.283-.972-.673-.4-.391-.62-.928-.22-.542-.22-1.299 0-1.484 1.1-2.344 1.103-.86 3.022-.86.957 0 1.836.172.883.17 1.401.37l-.518 2.32q-.522-.18-1.132-.317-.606-.142-1.368-.142-1.401 0-1.401.777 0 .18.059.322.063.141.244.273.18.127.488.279.308.146.791.327.977.361 1.616.713.645.346 1.011.757.371.41.522.913.152.498.152 1.157 0 1.562-1.172 2.363-1.172.796-3.31.796-1.402 0-2.335-.24-.927-.239-1.284-.4l.498-2.417q.762.298 1.558.47.8.17 1.582.17Z"/><path fill="#fff" d="M37.95 75.256q-2.178 0-3.15 1.21-.972 1.212-.972 3.311 0 1.02.24 1.85.244.83.722 1.431.479.596 1.197.928.722.327 1.684.327.518 0 .889-.02.37-.019.65-.077v-4.82h3.12v6.86q-.562.22-1.802.47-1.236.248-3.057.248-1.563 0-2.832-.478-1.27-.479-2.168-1.397-.899-.922-1.392-2.26-.488-1.343-.488-3.062 0-1.743.537-3.08.542-1.344 1.48-2.271.942-.928 2.212-1.407 1.269-.483 2.71-.483.98 0 1.767.132.791.127 1.362.298t.938.351q.37.18.532.279l-.898 2.5q-.64-.342-1.47-.591-.83-.25-1.812-.25m11.28 11.66q-1.298-.02-2.109-.278-.81-.264-1.284-.733-.469-.469-.64-1.138-.166-.673-.166-1.513V71.677l2.979-.479v11.46q0 .396.058.718.064.322.23.542.17.22.488.361.323.137.865.176zm6.14-2.28q.44 0 .84-.02t.64-.058v-2.261q-.181-.04-.543-.078-.356-.044-.659-.044-.42 0-.79.053-.367.05-.65.19-.279.138-.44.377-.156.24-.156.6 0 .699.469.972.469.269 1.289.269m-.24-8.721q1.319 0 2.198.303.884.297 1.411.859.532.557.752 1.357.22.801.22 1.783v6.2q-.64.138-1.782.328-1.138.19-2.76.19-1.02 0-1.85-.18t-1.43-.591-.923-1.07q-.318-.659-.318-1.62 0-.918.371-1.558t.992-1.02 1.42-.547q.801-.171 1.66-.171.577 0 1.026.048.454.05.732.127v-.278q0-.762-.459-1.22-.459-.46-1.601-.46-.757 0-1.5.113-.741.107-1.278.307l-.381-2.397q.258-.083.65-.171.39-.093.849-.161.459-.069.967-.117.512-.054 1.035-.054m10.299 8.662q.82 0 1.157-.161.342-.161.342-.62 0-.362-.44-.63-.439-.269-1.337-.61-.699-.26-1.27-.538-.571-.283-.972-.673-.4-.391-.62-.928-.22-.542-.22-1.299 0-1.484 1.1-2.344 1.103-.86 3.022-.86.957 0 1.836.172.883.17 1.401.37l-.518 2.32q-.522-.18-1.132-.317-.606-.142-1.368-.142-1.401 0-1.401.777 0 .18.059.322.063.141.244.273.18.127.488.279.308.146.791.327.977.361 1.616.713.645.346 1.011.757.371.41.522.913.152.498.152 1.157 0 1.562-1.172 2.363-1.172.796-3.31.796-1.402 0-2.335-.24-.927-.239-1.284-.4l.498-2.417q.762.298 1.558.47.8.17 1.582.17m9.7 0q.82 0 1.157-.161.342-.161.342-.62 0-.362-.44-.63-.439-.269-1.337-.61-.699-.26-1.27-.538-.571-.283-.972-.673-.4-.391-.62-.928-.22-.542-.22-1.299 0-1.484 1.1-2.344 1.103-.86 3.022-.86.957 0 1.836.172.883.17 1.401.37l-.518 2.32q-.522-.18-1.132-.317-.606-.142-1.368-.142-1.401 0-1.401.777 0 .18.059.322.063.141.244.273.18.127.488.279.308.146.791.327.977.361 1.616.713.645.346 1.011.757.371.41.522.913.152.498.152 1.157 0 1.562-1.172 2.363-1.172.796-3.31.796-1.402 0-2.335-.24-.927-.239-1.284-.4l.498-2.417q.762.298 1.558.47.8.17 1.582.17"/></svg>