<svg xmlns="http://www.w3.org/2000/svg" width="110" height="110"><path fill="#333" d="m63.49 61.08-9.768-31.077-14.425 9.262z"/><path fill="none" stroke="#333" stroke-linejoin="round" stroke-width="7.142849999999999" d="m63.49 61.08-9.768-31.077-14.425 9.262z"/><path fill="none" stroke="#000" stroke-linejoin="round" stroke-width="2.4" d="M26.828 72.853q.362.664.83 1.636.474.967.982 2.1.508 1.128 1.006 2.31.503 1.176.942 2.216.444-1.04.942-2.217.498-1.181 1.006-2.31.513-1.132.982-2.099.473-.972.83-1.636h2.842q.2 1.382.37 3.096.172 1.71.299 3.56.131 1.845.239 3.706.112 1.86.19 3.5h-3.037q-.063-2.02-.16-4.399-.099-2.383-.299-4.8l-.8 1.86q-.44 1.021-.875 2.042-.43 1.015-.83 1.948l-.678 1.592H29.43q-.283-.664-.684-1.592l-.825-1.948q-.43-1.02-.874-2.041-.44-1.02-.796-1.86-.2 2.416-.303 4.8-.097 2.377-.16 4.399H22.75q.078-1.64.186-3.501.112-1.86.239-3.706.132-1.85.303-3.56.17-1.714.37-3.096zM43.87 86.716H40.89V76.198h2.979zm.278-13.56q0 .82-.532 1.29-.527.468-1.245.468-.723 0-1.255-.469-.527-.469-.527-1.289t.527-1.289q.532-.474 1.255-.474.718 0 1.245.474.532.469.532 1.29Zm5.54 11.421q.821 0 1.158-.161.342-.161.342-.62 0-.362-.44-.63-.439-.269-1.337-.61-.699-.26-1.27-.538-.571-.283-.972-.673-.4-.391-.62-.928-.22-.542-.22-1.299 0-1.484 1.1-2.344 1.103-.86 3.022-.86.957 0 1.836.172.883.17 1.401.37l-.518 2.32q-.522-.18-1.132-.317-.606-.142-1.368-.142-1.401 0-1.401.777 0 .18.059.322.063.141.244.273.18.127.488.279.308.146.791.327.977.361 1.616.713.645.346 1.011.757.371.41.522.913.152.498.152 1.157 0 1.562-1.172 2.363-1.172.796-3.31.796-1.402 0-2.335-.24-.927-.239-1.284-.4l.498-2.417q.762.298 1.558.47.8.17 1.582.17Zm9.7 0q.821 0 1.158-.161.342-.161.342-.62 0-.362-.44-.63-.439-.269-1.337-.61-.699-.26-1.27-.538-.571-.283-.972-.673-.4-.391-.62-.928-.22-.542-.22-1.299 0-1.484 1.1-2.344 1.103-.86 3.022-.86.957 0 1.836.172.883.17 1.401.37l-.518 2.32q-.522-.18-1.132-.317-.606-.142-1.368-.142-1.401 0-1.401.777 0 .18.059.322.063.141.244.273.18.127.488.279.308.146.791.327.977.361 1.616.713.645.346 1.011.757.371.41.522.913.152.498.152 1.157 0 1.562-1.172 2.363-1.172.796-3.31.796-1.402 0-2.335-.24-.927-.239-1.284-.4l.498-2.417q.762.298 1.558.47.8.17 1.582.17Zm9.662 2.139H66.07V76.198h2.979zm.278-13.56q0 .82-.532 1.29-.527.468-1.245.468-.723 0-1.255-.469-.527-.469-.527-1.289t.527-1.289q.532-.474 1.255-.474.718 0 1.245.474.532.469.532 1.29Zm6.723 13.76q-1.3-.02-2.11-.278-.81-.264-1.284-.733-.469-.469-.64-1.138-.166-.673-.166-1.513V71.677l2.979-.479v11.46q0 .396.058.718.064.322.23.542.17.22.488.361.323.137.865.176zm1.617-5.381q0-1.401.43-2.451t1.128-1.748q.703-.698 1.611-1.06.913-.361 1.875-.361 2.237 0 3.535 1.372 1.304 1.367 1.304 4.028 0 .26-.02.572-.019.307-.043.546H80.73q.098.923.86 1.465.761.537 2.04.537.82 0 1.607-.146.79-.151 1.294-.371l.4 2.417q-.24.122-.64.244-.4.117-.893.205-.488.093-1.05.151-.556.059-1.118.059-1.42 0-2.47-.42t-1.744-1.147q-.688-.733-1.02-1.729-.328-1-.328-2.163Zm7.002-1.138q-.02-.38-.132-.742-.107-.361-.336-.64-.23-.278-.581-.458-.352-.181-.87-.181-.502 0-.864.17-.356.172-.596.45-.239.278-.37.65-.133.37-.191.751z"/><path fill="#fff" d="M26.828 72.853q.362.664.83 1.636.474.967.982 2.1.508 1.128 1.006 2.31.503 1.176.942 2.216.444-1.04.942-2.217.498-1.181 1.006-2.31.513-1.132.982-2.099.473-.972.83-1.636h2.842q.2 1.382.37 3.096.172 1.71.299 3.56.131 1.845.239 3.706.112 1.86.19 3.5h-3.037q-.063-2.02-.16-4.399-.099-2.383-.299-4.8l-.8 1.86q-.44 1.021-.875 2.042-.43 1.015-.83 1.948l-.678 1.592H29.43q-.283-.664-.684-1.592l-.825-1.948q-.43-1.02-.874-2.041-.44-1.02-.796-1.86-.2 2.416-.303 4.8-.097 2.377-.16 4.399H22.75q.078-1.64.186-3.501.112-1.86.239-3.706.132-1.85.303-3.56.17-1.714.37-3.096zM43.87 86.716H40.89V76.198h2.979zm.278-13.56q0 .82-.532 1.29-.527.468-1.245.468-.723 0-1.255-.469-.527-.469-.527-1.289t.527-1.289q.532-.474 1.255-.474.718 0 1.245.474.532.469.532 1.29m5.54 11.421q.821 0 1.158-.161.342-.161.342-.62 0-.362-.44-.63-.439-.269-1.337-.61-.699-.26-1.27-.538-.571-.283-.972-.673-.4-.391-.62-.928-.22-.542-.22-1.299 0-1.484 1.1-2.344 1.103-.86 3.022-.86.957 0 1.836.172.883.17 1.401.37l-.518 2.32q-.522-.18-1.132-.317-.606-.142-1.368-.142-1.401 0-1.401.777 0 .18.059.322.063.141.244.273.18.127.488.279.308.146.791.327.977.361 1.616.713.645.346 1.011.757.371.41.522.913.152.498.152 1.157 0 1.562-1.172 2.363-1.172.796-3.31.796-1.402 0-2.335-.24-.927-.239-1.284-.4l.498-2.417q.762.298 1.558.47.8.17 1.582.17m9.7 0q.821 0 1.158-.161.342-.161.342-.62 0-.362-.44-.63-.439-.269-1.337-.61-.699-.26-1.27-.538-.571-.283-.972-.673-.4-.391-.62-.928-.22-.542-.22-1.299 0-1.484 1.1-2.344 1.103-.86 3.022-.86.957 0 1.836.172.883.17 1.401.37l-.518 2.32q-.522-.18-1.132-.317-.606-.142-1.368-.142-1.401 0-1.401.777 0 .18.059.322.063.141.244.273.18.127.488.279.308.146.791.327.977.361 1.616.713.645.346 1.011.757.371.41.522.913.152.498.152 1.157 0 1.562-1.172 2.363-1.172.796-3.31.796-1.402 0-2.335-.24-.927-.239-1.284-.4l.498-2.417q.762.298 1.558.47.8.17 1.582.17m9.662 2.139H66.07V76.198h2.979zm.278-13.56q0 .82-.532 1.29-.527.468-1.245.468-.723 0-1.255-.469-.527-.469-.527-1.289t.527-1.289q.532-.474 1.255-.474.718 0 1.245.474.532.469.532 1.29m6.723 13.76q-1.3-.02-2.11-.278-.81-.264-1.284-.733-.469-.469-.64-1.138-.166-.673-.166-1.513V71.677l2.979-.479v11.46q0 .396.058.718.064.322.23.542.17.22.488.361.323.137.865.176zm1.617-5.381q0-1.401.43-2.451t1.128-1.748q.703-.698 1.611-1.06.913-.361 1.875-.361 2.237 0 3.535 1.372 1.304 1.367 1.304 4.028 0 .26-.02.572-.019.307-.043.546H80.73q.098.923.86 1.465.761.537 2.04.537.82 0 1.607-.146.79-.151 1.294-.371l.4 2.417q-.24.122-.64.244-.4.117-.893.205-.488.093-1.05.151-.556.059-1.118.059-1.42 0-2.47-.42t-1.744-1.147q-.688-.733-1.02-1.729-.328-1-.328-2.163m7.002-1.138q-.02-.38-.132-.742-.107-.361-.336-.64-.23-.278-.581-.458-.352-.181-.87-.181-.502 0-.864.17-.356.172-.596.45-.239.278-.37.65-.133.37-.191.751z"/></svg>