<svg xmlns="http://www.w3.org/2000/svg" width="110" height="110"><path fill="#cfcfcf" d="M48.65 33.764q14.025 4.98 21.318 17.956.086.153.164.31t.149.317.133.325.117.33.1.336.085.34.067.344.05.347.033.35q.013.174.016.35.004.175 0 .35-.006.175-.02.35-.013.175-.035.349t-.052.347-.07.343-.086.34q-.048.169-.103.335-.056.166-.12.33-.063.163-.135.323-.071.16-.15.317-.08.156-.167.308-.087.153-.181.3-.095.148-.196.291t-.21.281q-.108.138-.223.27-.115.133-.236.26-.122.126-.25.246-.127.12-.26.235t-.272.222-.282.207-.292.194-.301.18q-.153.085-.31.164-.157.078-.318.148-.16.071-.324.134-.164.062-.33.117-.167.054-.336.1-.17.046-.34.084-.172.038-.345.067t-.347.05-.349.034-.35.016q-.175.004-.35-.001-.176-.005-.35-.019-.175-.013-.35-.035-.173-.022-.346-.053-.173-.03-.344-.07-.17-.038-.34-.086-.168-.047-.335-.103-.166-.055-.33-.119-.163-.064-.323-.135t-.316-.151-.309-.166-.3-.182-.29-.196-.282-.21-.27-.223-.259-.236-.247-.249-.234-.26-.222-.272-.208-.282-.194-.292-.179-.302q-4.668-8.305-13.645-11.493-.166-.06-.328-.126t-.32-.141-.314-.157q-.155-.082-.306-.172-.15-.09-.296-.187t-.287-.201-.277-.215-.266-.228-.255-.242-.242-.253-.23-.265q-.111-.135-.216-.276-.105-.14-.203-.286-.097-.145-.188-.296-.09-.15-.173-.304-.083-.155-.159-.313-.075-.158-.143-.32t-.127-.327-.11-.333q-.052-.167-.095-.337t-.077-.342-.061-.346q-.026-.173-.044-.347-.017-.175-.026-.35-.01-.175-.01-.35 0-.176.008-.35.008-.176.025-.35.017-.175.042-.349.025-.173.059-.345t.076-.342.093-.339q.05-.167.109-.333.059-.165.125-.327.067-.162.142-.321t.156-.314.173-.305.186-.297.202-.287q.104-.14.215-.277.11-.135.228-.266.117-.13.241-.254t.254-.242q.13-.119.265-.23t.275-.216.286-.203q.146-.098.296-.188t.305-.174.313-.158.32-.143.327-.127.332-.11.338-.095.342-.078q.172-.034.345-.06.173-.027.348-.044.174-.018.35-.027.175-.009.35-.01.175 0 .35.009.176.008.35.024.175.017.348.043.174.025.346.059t.342.076.338.092.333.11"/><path fill="#fff" d="M47.932 35.783Q61.202 40.495 68.1 52.77q.12.214.219.439t.175.458.13.474q.052.24.081.483.03.244.035.49.005.245-.014.49t-.061.487-.11.479q-.066.236-.155.465-.09.229-.2.448-.112.219-.244.426t-.284.4q-.151.193-.321.37-.17.178-.357.338t-.388.3-.415.261-.44.22q-.224.098-.458.174-.233.077-.473.13t-.484.082-.49.034q-.245.006-.49-.013-.245-.02-.486-.062-.242-.043-.479-.11-.236-.065-.465-.155-.23-.089-.448-.2-.22-.111-.426-.243-.207-.132-.4-.284t-.37-.322-.338-.356-.3-.388-.262-.416q-5.061-9.006-14.796-12.463-.232-.082-.454-.186-.222-.105-.433-.23-.211-.126-.409-.272t-.38-.31-.348-.347-.312-.378-.274-.408-.232-.432-.189-.453-.143-.469-.097-.481-.05-.488 0-.49q.01-.246.046-.49.036-.242.095-.48.059-.24.141-.47.082-.232.187-.454.104-.223.23-.434.126-.21.272-.408t.31-.38q.165-.183.346-.348.182-.166.379-.312.197-.147.407-.274t.432-.232.453-.19q.231-.082.47-.143t.48-.097.489-.049q.245-.012.49 0 .246.01.489.046t.481.095q.239.059.47.14"/><path fill="none" stroke="#000" stroke-linejoin="round" stroke-width="2.4" d="M40.26 72.697q3.12 0 4.78 1.109t1.66 3.452q0 1.46-.67 2.368-.668.908-1.928 1.43.42.518.879 1.192.459.669.908 1.401.45.728.87 1.519.42.786.78 1.548h-3.5l-.772-1.377q-.386-.703-.796-1.363-.41-.659-.81-1.25-.4-.59-.801-1.069h-1.538v5.059h-3.12V73.054q1.02-.2 2.109-.279 1.089-.078 1.948-.078Zm.18 2.656q-.342 0-.61.025l-.508.039v3.76h.879q1.757 0 2.52-.44.76-.44.76-1.504 0-1.015-.77-1.445-.772-.435-2.271-.435Zm11.88 11.363H49.34V76.198h2.979zm.278-13.56q0 .82-.532 1.29-.527.468-1.245.468-.723 0-1.255-.469-.527-.469-.527-1.289t.527-1.289q.532-.474 1.255-.474.718 0 1.245.474.532.469.532 1.29Zm2.02 8.3q0-1.142.372-2.148.37-1.01 1.069-1.762.703-.752 1.7-1.192 1-.44 2.28-.44.84 0 1.537.152.704.152 1.363.43l-.62 2.378q-.42-.156-.923-.278-.498-.122-1.118-.122-1.319 0-1.968.82-.65.82-.65 2.163 0 1.42.61 2.202.611.776 2.13.776.542 0 1.162-.097.62-.103 1.137-.322l.42 2.44q-.517.22-1.298.377-.782.161-1.72.161-1.44 0-2.48-.43t-1.713-1.167q-.67-.742-.982-1.753-.308-1.01-.308-2.187Zm10 .079q0-1.401.43-2.451t1.128-1.748q.703-.698 1.611-1.06.913-.361 1.875-.361 2.237 0 3.535 1.372 1.304 1.367 1.304 4.028 0 .26-.02.572-.019.307-.043.546H67.68q.098.923.86 1.465.761.537 2.04.537.82 0 1.607-.146.79-.151 1.294-.371l.4 2.417q-.24.122-.64.244-.4.117-.893.205-.488.093-1.05.151-.556.059-1.118.059-1.421 0-2.47-.42t-1.744-1.147q-.688-.733-1.02-1.729-.328-1-.328-2.163Zm7.002-1.138q-.02-.38-.132-.742-.107-.361-.336-.64-.23-.278-.581-.458-.352-.181-.87-.181-.502 0-.864.17-.356.172-.596.45-.239.278-.37.65-.132.37-.191.751z"/><path fill="#fff" d="M40.26 72.697q3.12 0 4.78 1.109t1.66 3.452q0 1.46-.67 2.368-.668.908-1.928 1.43.42.518.879 1.192.459.669.908 1.401.45.728.87 1.519.42.786.78 1.548h-3.5l-.772-1.377q-.386-.703-.796-1.363-.41-.659-.81-1.25-.4-.59-.801-1.069h-1.538v5.059h-3.12V73.054q1.02-.2 2.109-.279 1.089-.078 1.948-.078m.18 2.656q-.342 0-.61.025l-.508.039v3.76h.879q1.757 0 2.52-.44.76-.44.76-1.504 0-1.015-.77-1.445-.772-.435-2.271-.435m11.88 11.363H49.34V76.198h2.979zm.278-13.56q0 .82-.532 1.29-.527.468-1.245.468-.723 0-1.255-.469-.527-.469-.527-1.289t.527-1.289q.532-.474 1.255-.474.718 0 1.245.474.532.469.532 1.29m2.02 8.3q0-1.142.372-2.148.37-1.01 1.069-1.762.703-.752 1.7-1.192 1-.44 2.28-.44.84 0 1.537.152.704.152 1.363.43l-.62 2.378q-.42-.156-.923-.278-.498-.122-1.118-.122-1.319 0-1.968.82-.65.82-.65 2.163 0 1.42.61 2.202.611.776 2.13.776.542 0 1.162-.097.62-.103 1.137-.322l.42 2.44q-.517.22-1.298.377-.782.161-1.72.161-1.44 0-2.48-.43t-1.713-1.167q-.67-.742-.982-1.753-.308-1.01-.308-2.187m10 .079q0-1.401.43-2.451t1.128-1.748q.703-.698 1.611-1.06.913-.361 1.875-.361 2.237 0 3.535 1.372 1.304 1.367 1.304 4.028 0 .26-.02.572-.019.307-.043.546H67.68q.098.923.86 1.465.761.537 2.04.537.82 0 1.607-.146.79-.151 1.294-.371l.4 2.417q-.24.122-.64.244-.4.117-.893.205-.488.093-1.05.151-.556.059-1.118.059-1.421 0-2.47-.42t-1.744-1.147q-.688-.733-1.02-1.729-.328-1-.328-2.163m7.002-1.138q-.02-.38-.132-.742-.107-.361-.336-.64-.23-.278-.581-.458-.352-.181-.87-.181-.502 0-.864.17-.356.172-.596.45-.239.278-.37.65-.132.37-.191.751z"/></svg>