<svg xmlns="http://www.w3.org/2000/svg" width="110" height="110"><path fill="#777" d="M72.34 47.857 60.488 65.54 38.84 59.167l-.214-22.505 22.856-8.65z"/><path fill="#606060" d="M74.12 49.05 62.268 66.732q-.095.142-.21.266-.116.125-.25.23-.134.104-.283.186-.149.083-.309.14t-.326.09-.337.037-.339-.016q-.168-.022-.331-.07l-21.647-6.372q-.165-.049-.319-.122-.154-.074-.295-.172t-.264-.215-.227-.255-.183-.288-.136-.313-.084-.33q-.028-.17-.03-.34l-.214-22.506q-.001-.164.022-.325.023-.162.07-.319.048-.156.119-.303.07-.148.163-.283.092-.135.204-.254.112-.12.24-.22.129-.102.271-.182t.295-.138l22.857-8.65q.18-.068.369-.103t.381-.036.382.033.37.1.345.165.312.223.266.275.213.319L74.22 46.829q.07.128.122.265.053.137.086.28.033.142.046.287.013.146.007.292-.007.147-.033.29-.027.145-.072.284-.046.139-.11.27-.064.132-.146.253m-3.56-2.386 1.78 1.193-1.88 1.029L59.603 29.04l1.88-1.028.759 2.004-22.857 8.65-.758-2.004 2.143-.02.213 22.505-2.142.02.605-2.056 21.647 6.373-.605 2.055-1.78-1.193z"/><path fill="none" stroke="#000" stroke-linejoin="round" stroke-width="2.4" d="M37.13 72.697q3.12 0 4.78 1.109t1.66 3.452q0 1.46-.67 2.368-.668.908-1.928 1.43.42.518.879 1.192.459.669.908 1.401.45.728.87 1.519.42.786.78 1.548h-3.5l-.772-1.377q-.386-.703-.796-1.363-.41-.659-.81-1.25-.4-.59-.801-1.069h-1.538v5.059h-3.12V73.054q1.02-.2 2.109-.279 1.089-.078 1.948-.078Zm.18 2.656q-.342 0-.61.025l-.508.039v3.76h.879q1.757 0 2.52-.44.76-.44.76-1.504 0-1.015-.77-1.445-.772-.435-2.271-.435Zm18.74 6.084q0 1.24-.361 2.27-.361 1.026-1.04 1.759t-1.631 1.133q-.947.395-2.129.395-1.157 0-2.11-.395-.951-.4-1.63-1.133t-1.06-1.758q-.38-1.03-.38-2.27t.39-2.261q.39-1.02 1.08-1.739.693-.722 1.64-1.123.952-.4 2.07-.4 1.143 0 2.09.4.952.4 1.63 1.123.68.718 1.06 1.739.381 1.02.381 2.26Zm-3.042 0q0-1.381-.552-2.172-.546-.791-1.567-.791t-1.582.79q-.557.792-.557 2.173 0 1.377.557 2.188.562.81 1.582.81t1.567-.81q.552-.81.552-2.188Zm4.84.02q0-1.143.372-2.149.37-1.01 1.069-1.762.703-.752 1.7-1.192 1-.44 2.28-.44.84 0 1.537.152.704.152 1.363.43l-.62 2.378q-.42-.156-.923-.278-.498-.122-1.118-.122-1.319 0-1.968.82-.65.82-.65 2.163 0 1.42.61 2.202.611.776 2.13.776.542 0 1.162-.097.62-.103 1.138-.322l.42 2.44q-.518.22-1.3.377-.78.161-1.718.161-1.44 0-2.48-.43t-1.714-1.167q-.67-.742-.982-1.753-.308-1.01-.308-2.187Zm13.482-1.46q.44-.483.908-1.001.474-.522.913-1.03t.83-.967q.39-.464.67-.8h3.54q-1.06 1.215-2.071 2.328-1.01 1.109-2.212 2.29.6.537 1.24 1.29.64.746 1.24 1.547.601.801 1.1 1.602.502.8.844 1.46h-3.423q-.317-.518-.728-1.148-.41-.635-.874-1.264-.459-.63-.971-1.206-.508-.582-1.006-.982v4.6H68.35v-15.04l2.979-.478z"/><path fill="#fff" d="M37.13 72.697q3.12 0 4.78 1.109t1.66 3.452q0 1.46-.67 2.368-.668.908-1.928 1.43.42.518.879 1.192.459.669.908 1.401.45.728.87 1.519.42.786.78 1.548h-3.5l-.772-1.377q-.386-.703-.796-1.363-.41-.659-.81-1.25-.4-.59-.801-1.069h-1.538v5.059h-3.12V73.054q1.02-.2 2.109-.279 1.089-.078 1.948-.078m.18 2.656q-.342 0-.61.025l-.508.039v3.76h.879q1.757 0 2.52-.44.76-.44.76-1.504 0-1.015-.77-1.445-.772-.435-2.271-.435m18.74 6.084q0 1.24-.361 2.27-.361 1.026-1.04 1.759t-1.631 1.133q-.947.395-2.129.395-1.157 0-2.11-.395-.951-.4-1.63-1.133t-1.06-1.758q-.38-1.03-.38-2.27t.39-2.261q.39-1.02 1.08-1.739.693-.722 1.64-1.123.952-.4 2.07-.4 1.143 0 2.09.4.952.4 1.63 1.123.68.718 1.06 1.739.381 1.02.381 2.26m-3.042 0q0-1.381-.552-2.172-.546-.791-1.567-.791t-1.582.79q-.557.792-.557 2.173 0 1.377.557 2.188.562.81 1.582.81t1.567-.81q.552-.81.552-2.188m4.84.02q0-1.143.372-2.149.37-1.01 1.069-1.762.703-.752 1.7-1.192 1-.44 2.28-.44.84 0 1.537.152.704.152 1.363.43l-.62 2.378q-.42-.156-.923-.278-.498-.122-1.118-.122-1.319 0-1.968.82-.65.82-.65 2.163 0 1.42.61 2.202.611.776 2.13.776.542 0 1.162-.097.62-.103 1.138-.322l.42 2.44q-.518.22-1.3.377-.78.161-1.718.161-1.44 0-2.48-.43t-1.714-1.167q-.67-.742-.982-1.753-.308-1.01-.308-2.187m13.482-1.46q.44-.483.908-1.001.474-.522.913-1.03t.83-.967q.39-.464.67-.8h3.54q-1.06 1.215-2.071 2.328-1.01 1.109-2.212 2.29.6.537 1.24 1.29.64.746 1.24 1.547.601.801 1.1 1.602.502.8.844 1.46h-3.423q-.317-.518-.728-1.148-.41-.635-.874-1.264-.459-.63-.971-1.206-.508-.582-1.006-.982v4.6H68.35v-15.04l2.979-.478z"/></svg>