<svg xmlns="http://www.w3.org/2000/svg" width="110" height="110"><path fill="#cf78a3" d="M71.429 47.857q0 .403-.02.806t-.06.804-.098.8-.138.795-.177.787-.215.777-.253.766-.29.752-.327.737-.362.72-.398.702-.431.681-.464.66-.497.635q-.255.312-.526.61-.271.3-.556.585t-.584.556q-.3.27-.61.527-.313.255-.637.496-.323.24-.659.464-.335.224-.681.431-.346.208-.702.398-.355.19-.72.362-.364.173-.737.327t-.752.29-.766.253-.777.215-.787.177q-.396.079-.794.138-.4.06-.8.099-.402.04-.805.059-.403.02-.806.02t-.806-.02-.804-.06-.8-.098-.795-.138-.787-.177-.777-.215-.766-.253-.752-.29-.737-.327-.72-.362-.702-.398-.681-.431-.66-.464q-.323-.24-.635-.496t-.61-.527q-.3-.271-.585-.556t-.556-.584q-.27-.299-.526-.61-.256-.312-.497-.636-.24-.324-.464-.66-.224-.335-.431-.68-.208-.347-.398-.703-.19-.355-.362-.72-.173-.364-.327-.737t-.29-.752-.253-.766-.215-.777-.177-.787q-.079-.395-.138-.794-.059-.4-.098-.8-.04-.402-.06-.805t-.02-.806.02-.806.06-.804.098-.8q.06-.4.138-.795t.177-.787q.098-.39.215-.777.117-.386.253-.766t.29-.752.327-.737.362-.72.398-.702.431-.681.464-.66.497-.635q.255-.312.526-.61.271-.3.556-.585t.584-.556q.3-.27.61-.526.313-.256.637-.496.323-.24.659-.465.335-.224.681-.431t.702-.398.72-.362.737-.327.752-.29.766-.253.777-.215.787-.177.794-.138.8-.098q.402-.04.805-.06t.806-.02.806.02.804.06q.402.04.8.098.4.06.795.138.396.079.787.177t.777.215.766.253.752.29.737.327.72.362.702.398.681.431.66.465.635.496.61.526q.3.271.585.556t.556.584q.27.3.526.61.256.313.497.637.24.324.464.659t.431.681.398.702.362.72.327.737.29.752.253.766.215.777.177.787.138.795q.059.398.098.8.04.401.06.804t.02.806"/><path fill="#ff94c9" d="M67.143 47.857q0 .298-.015.596t-.044.594-.073.592-.101.587-.131.582-.159.574-.187.566-.214.556-.242.545-.268.532-.294.519-.319.503-.343.488-.366.47-.39.45q-.2.222-.41.432-.211.211-.432.411t-.452.39-.47.366-.487.344-.503.318q-.256.154-.519.294t-.532.268-.545.242-.556.214q-.28.1-.566.187t-.575.159-.581.13q-.292.059-.587.103-.295.043-.592.072-.296.03-.594.044Q55.298 60 55 60t-.596-.015-.594-.044-.592-.072-.587-.102-.581-.131-.575-.159-.566-.187-.556-.214-.545-.242-.532-.268-.519-.294-.503-.318-.487-.344-.47-.366-.452-.39q-.22-.2-.431-.41-.211-.211-.411-.432t-.39-.452-.366-.47-.343-.487-.32-.503-.293-.519-.268-.532-.242-.545-.214-.556-.187-.566-.159-.574q-.072-.29-.13-.582t-.102-.587-.073-.592-.044-.594-.015-.596.015-.596q.014-.297.044-.594t.073-.592.101-.587q.059-.292.131-.581.072-.29.159-.575t.187-.566q.1-.28.214-.556.115-.275.242-.545t.268-.532q.14-.263.294-.519.153-.255.319-.503.165-.248.343-.487.177-.24.366-.47.19-.23.39-.452.2-.22.41-.431.211-.211.432-.411t.452-.39.47-.366.487-.343.503-.32.519-.293.532-.268.545-.241.556-.215.566-.187.575-.159.581-.13.587-.102.592-.073.594-.044.596-.015.596.015.594.044.592.073.587.102.581.13q.29.073.575.16.285.086.566.186t.556.215.545.241.532.268.519.294.503.319.487.343q.24.177.47.367.23.189.452.389.22.2.431.41.211.212.411.432.2.221.39.452.189.23.366.47.178.239.343.487t.32.503.293.519.268.532.242.545.214.556.187.566.159.575.13.581q.059.293.102.587.044.295.073.592.03.297.044.594.015.298.015.596"/><path fill="none" stroke="#000" stroke-linejoin="round" stroke-width="2.4" d="M37.23 72.697q3.12 0 4.78 1.109t1.66 3.452q0 1.46-.67 2.368-.668.908-1.928 1.43.42.518.879 1.192.459.669.908 1.401.45.728.87 1.519.42.786.78 1.548h-3.5l-.772-1.377q-.386-.703-.796-1.363-.41-.659-.81-1.25-.4-.59-.801-1.069h-1.538v5.059h-3.12V73.054q1.02-.2 2.109-.279 1.089-.078 1.948-.078Zm.18 2.656q-.342 0-.61.025l-.508.039v3.76h.879q1.757 0 2.52-.44.76-.44.76-1.504 0-1.015-.77-1.445-.772-.435-2.271-.435Zm18.74 6.084q0 1.24-.361 2.27-.361 1.026-1.04 1.759t-1.631 1.133q-.947.395-2.129.395-1.157 0-2.11-.395-.951-.4-1.63-1.133t-1.06-1.758q-.38-1.03-.38-2.27t.39-2.261q.39-1.02 1.08-1.739.693-.722 1.64-1.123.952-.4 2.07-.4 1.143 0 2.09.4.952.4 1.63 1.123.68.718 1.06 1.739.381 1.02.381 2.26Zm-3.042 0q0-1.381-.552-2.172-.546-.791-1.567-.791t-1.582.79q-.557.792-.557 2.173 0 1.377.557 2.188.562.81 1.582.81t1.567-.81q.552-.81.552-2.188Zm8.36 3.14q.821 0 1.158-.161.342-.161.342-.62 0-.362-.44-.63-.439-.269-1.337-.61-.699-.26-1.27-.538-.571-.283-.972-.673-.4-.391-.62-.928-.22-.542-.22-1.299 0-1.484 1.1-2.344 1.103-.86 3.022-.86.957 0 1.836.172.883.17 1.401.37l-.518 2.32q-.522-.18-1.132-.317-.606-.142-1.368-.142-1.401 0-1.401.777 0 .18.059.322.063.141.244.273.18.127.488.279.308.146.791.327.977.361 1.616.713.645.346 1.011.757.371.41.523.913.15.498.15 1.157 0 1.562-1.171 2.363-1.172.796-3.31.796-1.402 0-2.335-.24-.927-.239-1.284-.4l.498-2.417q.762.298 1.558.47.8.17 1.582.17Zm6.18-3.042q0-1.401.43-2.451t1.128-1.748q.703-.698 1.611-1.06.914-.361 1.875-.361 2.237 0 3.535 1.372 1.304 1.367 1.304 4.028 0 .26-.02.572-.019.307-.043.546H70.71q.098.923.86 1.465.761.537 2.04.537.82 0 1.607-.146.79-.151 1.294-.371l.4 2.417q-.24.122-.64.244-.4.117-.893.205-.488.093-1.05.151-.556.059-1.118.059-1.421 0-2.47-.42t-1.744-1.147q-.688-.733-1.02-1.729-.328-1-.328-2.163Zm7.002-1.138q-.02-.38-.132-.742-.107-.361-.336-.64-.23-.278-.581-.458-.352-.181-.87-.181-.502 0-.864.17-.356.172-.596.45-.239.278-.37.65-.132.37-.191.751z"/><path fill="#fff" d="M37.23 72.697q3.12 0 4.78 1.109t1.66 3.452q0 1.46-.67 2.368-.668.908-1.928 1.43.42.518.879 1.192.459.669.908 1.401.45.728.87 1.519.42.786.78 1.548h-3.5l-.772-1.377q-.386-.703-.796-1.363-.41-.659-.81-1.25-.4-.59-.801-1.069h-1.538v5.059h-3.12V73.054q1.02-.2 2.109-.279 1.089-.078 1.948-.078m.18 2.656q-.342 0-.61.025l-.508.039v3.76h.879q1.757 0 2.52-.44.76-.44.76-1.504 0-1.015-.77-1.445-.772-.435-2.271-.435m18.74 6.084q0 1.24-.361 2.27-.361 1.026-1.04 1.759t-1.631 1.133q-.947.395-2.129.395-1.157 0-2.11-.395-.951-.4-1.63-1.133t-1.06-1.758q-.38-1.03-.38-2.27t.39-2.261q.39-1.02 1.08-1.739.693-.722 1.64-1.123.952-.4 2.07-.4 1.143 0 2.09.4.952.4 1.63 1.123.68.718 1.06 1.739.381 1.02.381 2.26m-3.042 0q0-1.381-.552-2.172-.546-.791-1.567-.791t-1.582.79q-.557.792-.557 2.173 0 1.377.557 2.188.562.81 1.582.81t1.567-.81q.552-.81.552-2.188m8.36 3.14q.821 0 1.158-.161.342-.161.342-.62 0-.362-.44-.63-.439-.269-1.337-.61-.699-.26-1.27-.538-.571-.283-.972-.673-.4-.391-.62-.928-.22-.542-.22-1.299 0-1.484 1.1-2.344 1.103-.86 3.022-.86.957 0 1.836.172.883.17 1.401.37l-.518 2.32q-.522-.18-1.132-.317-.606-.142-1.368-.142-1.401 0-1.401.777 0 .18.059.322.063.141.244.273.18.127.488.279.308.146.791.327.977.361 1.616.713.645.346 1.011.757.371.41.523.913.15.498.15 1.157 0 1.562-1.171 2.363-1.172.796-3.31.796-1.402 0-2.335-.24-.927-.239-1.284-.4l.498-2.417q.762.298 1.558.47.8.17 1.582.17m6.18-3.042q0-1.401.43-2.451t1.128-1.748q.703-.698 1.611-1.06.914-.361 1.875-.361 2.237 0 3.535 1.372 1.304 1.367 1.304 4.028 0 .26-.02.572-.019.307-.043.546H70.71q.098.923.86 1.465.761.537 2.04.537.82 0 1.607-.146.79-.151 1.294-.371l.4 2.417q-.24.122-.64.244-.4.117-.893.205-.488.093-1.05.151-.556.059-1.118.059-1.421 0-2.47-.42t-1.744-1.147q-.688-.733-1.02-1.729-.328-1-.328-2.163m7.002-1.138q-.02-.38-.132-.742-.107-.361-.336-.64-.23-.278-.581-.458-.352-.181-.87-.181-.502 0-.864.17-.356.172-.596.45-.239.278-.37.65-.132.37-.191.751z"/></svg>