<svg xmlns="http://www.w3.org/2000/svg" width="110" height="110"><path fill="#333" d="m65 47.857-15 8.66v-17.32z"/><path fill="none" stroke="#292929" stroke-linejoin="round" stroke-width="4.28571" d="m65 47.857-15 8.66v-17.32z"/><path fill="none" stroke="#000" stroke-linejoin="round" stroke-width="2.4" d="M25.34 84.338q.66 0 1.09-.108.43-.112.688-.302.264-.19.362-.45.102-.263.102-.58 0-.684-.644-1.133-.64-.45-2.198-.967-.678-.244-1.362-.552-.679-.313-1.22-.781-.538-.469-.88-1.138-.337-.669-.337-1.63 0-.963.357-1.73.361-.77 1.02-1.308.66-.542 1.602-.83.942-.293 2.12-.293 1.4 0 2.421.303 1.02.298 1.68.659l-.899 2.456q-.58-.298-1.294-.527-.708-.23-1.709-.23-1.118 0-1.611.313-.488.307-.488.947 0 .38.18.64.181.258.508.468.332.21.762.381t.952.352q1.08.4 1.875.79.8.386 1.333.909.532.518.791 1.22.259.699.259 1.7 0 1.938-1.362 3.008-1.358 1.069-4.097 1.069-.923 0-1.665-.112-.737-.108-1.309-.264-.566-.161-.976-.342-.41-.18-.689-.342l.88-2.48q.62.342 1.527.615.909.269 2.232.269ZM32.9 73.576l2.983-.478v3.1h3.58v2.476h-3.58v3.7q0 .943.327 1.505.332.556 1.333.556.479 0 .987-.087.512-.093.932-.254l.42 2.324q-.542.22-1.2.376-.66.161-1.622.161-1.22 0-2.021-.327-.796-.332-1.28-.923-.478-.59-.669-1.43-.19-.84-.19-1.861zm11.96 13.14h-2.978V76.198h2.979zm.28-13.56q0 .82-.533 1.29-.527.468-1.245.468-.723 0-1.255-.469-.527-.469-.527-1.289t.527-1.289q.532-.474 1.255-.474.718 0 1.245.474.532.469.532 1.29Zm2.522 3.399q.757-.22 1.958-.41 1.202-.191 2.52-.191 1.343 0 2.231.352.889.351 1.407.99.522.64.742 1.52.22.878.22 1.957v5.943H53.76v-5.581q0-1.44-.38-2.036-.382-.601-1.422-.601-.317 0-.678.03t-.64.068v8.12H47.66zm14.32 4.56q0 2.5 2.02 2.5.46 0 .86-.117.4-.122.679-.283v-4.761q-.22-.04-.523-.068-.297-.03-.698-.03-1.181 0-1.762.782-.577.776-.577 1.977Zm6.538 4.282q0 2.578-1.31 3.828-1.308 1.25-4.047 1.25-.962 0-1.924-.17-.957-.171-1.777-.45l.517-2.5q.704.279 1.47.44.772.16 1.753.16 1.28 0 1.807-.56.532-.557.532-1.441v-.376q-.479.22-.991.332-.508.107-1.109.107-2.182 0-3.344-1.289-1.158-1.294-1.158-3.613 0-1.157.362-2.11.361-.951 1.05-1.63.688-.679 1.689-1.05t2.26-.371q.543 0 1.11.054.57.049 1.127.132.562.078 1.07.19.512.107.913.225zm2.3-3.862q0-1.401.43-2.451.429-1.05 1.127-1.748.703-.698 1.611-1.06.913-.361 1.875-.361 2.237 0 3.536 1.372 1.303 1.367 1.303 4.028 0 .26-.02.572-.019.307-.043.546H73.88q.098.923.86 1.465.761.537 2.04.537.82 0 1.607-.146.79-.151 1.294-.371l.4 2.417q-.24.122-.64.244-.4.117-.893.205-.488.093-1.05.151-.556.059-1.118.059-1.421 0-2.47-.42t-1.744-1.147q-.688-.733-1.02-1.729-.328-1-.328-2.163Zm7.001-1.138q-.02-.38-.131-.742-.108-.361-.337-.64-.23-.278-.581-.458-.352-.181-.87-.181-.502 0-.864.17-.356.172-.596.45-.239.278-.37.65-.132.37-.191.751zm11.52-1.562q-.401-.098-.943-.205-.537-.113-1.157-.113-.279 0-.67.05-.39.048-.59.107v8.042H83v-9.961q.801-.279 1.89-.528 1.089-.253 2.427-.253.244 0 .58.034.343.029.68.078.341.049.678.122.342.068.586.166z"/><path fill="#fff" d="M25.34 84.338q.66 0 1.09-.108.43-.112.688-.302.264-.19.362-.45.102-.263.102-.58 0-.684-.644-1.133-.64-.45-2.198-.967-.678-.244-1.362-.552-.679-.313-1.22-.781-.538-.469-.88-1.138-.337-.669-.337-1.63 0-.963.357-1.73.361-.77 1.02-1.308.66-.542 1.602-.83.942-.293 2.12-.293 1.4 0 2.421.303 1.02.298 1.68.659l-.899 2.456q-.58-.298-1.294-.527-.708-.23-1.709-.23-1.118 0-1.611.313-.488.307-.488.947 0 .38.18.64.181.258.508.468.332.21.762.381t.952.352q1.08.4 1.875.79.8.386 1.333.909.532.518.791 1.22.259.699.259 1.7 0 1.938-1.362 3.008-1.358 1.069-4.097 1.069-.923 0-1.665-.112-.737-.108-1.309-.264-.566-.161-.976-.342-.41-.18-.689-.342l.88-2.48q.62.342 1.527.615.909.269 2.232.269M32.9 73.576l2.983-.478v3.1h3.58v2.476h-3.58v3.7q0 .943.327 1.505.332.556 1.333.556.479 0 .987-.087.512-.093.932-.254l.42 2.324q-.542.22-1.2.376-.66.161-1.622.161-1.22 0-2.021-.327-.796-.332-1.28-.923-.478-.59-.669-1.43-.19-.84-.19-1.861zm11.96 13.14h-2.978V76.198h2.979zm.28-13.56q0 .82-.533 1.29-.527.468-1.245.468-.723 0-1.255-.469-.527-.469-.527-1.289t.527-1.289q.532-.474 1.255-.474.718 0 1.245.474.532.469.532 1.29m2.522 3.399q.757-.22 1.958-.41 1.202-.191 2.52-.191 1.343 0 2.231.352.889.351 1.407.99.522.64.742 1.52.22.878.22 1.957v5.943H53.76v-5.581q0-1.44-.38-2.036-.382-.601-1.422-.601-.317 0-.678.03t-.64.068v8.12H47.66zm14.32 4.56q0 2.5 2.02 2.5.46 0 .86-.117.4-.122.679-.283v-4.761q-.22-.04-.523-.068-.297-.03-.698-.03-1.181 0-1.762.782-.577.776-.577 1.977m6.538 4.282q0 2.578-1.31 3.828-1.308 1.25-4.047 1.25-.962 0-1.924-.17-.957-.171-1.777-.45l.517-2.5q.704.279 1.47.44.772.16 1.753.16 1.28 0 1.807-.56.532-.557.532-1.441v-.376q-.479.22-.991.332-.508.107-1.109.107-2.182 0-3.344-1.289-1.158-1.294-1.158-3.613 0-1.157.362-2.11.361-.951 1.05-1.63.688-.679 1.689-1.05t2.26-.371q.543 0 1.11.054.57.049 1.127.132.562.078 1.07.19.512.107.913.225zm2.3-3.862q0-1.401.43-2.451.429-1.05 1.127-1.748.703-.698 1.611-1.06.913-.361 1.875-.361 2.237 0 3.536 1.372 1.303 1.367 1.303 4.028 0 .26-.02.572-.019.307-.043.546H73.88q.098.923.86 1.465.761.537 2.04.537.82 0 1.607-.146.79-.151 1.294-.371l.4 2.417q-.24.122-.64.244-.4.117-.893.205-.488.093-1.05.151-.556.059-1.118.059-1.421 0-2.47-.42t-1.744-1.147q-.688-.733-1.02-1.729-.328-1-.328-2.163m7.001-1.138q-.02-.38-.131-.742-.108-.361-.337-.64-.23-.278-.581-.458-.352-.181-.87-.181-.502 0-.864.17-.356.172-.596.45-.239.278-.37.65-.132.37-.191.751zm11.52-1.562q-.401-.098-.943-.205-.537-.113-1.157-.113-.279 0-.67.05-.39.048-.59.107v8.042H83v-9.961q.801-.279 1.89-.528 1.089-.253 2.427-.253.244 0 .58.034.343.029.68.078.341.049.678.122.342.068.586.166z"/></svg>