<svg xmlns="http://www.w3.org/2000/svg" width="110" height="110"><path fill="#fff" d="M73.032 36.28q.284.442.546.898t.502.924q.239.469.455.948.216.48.409.97t.36.987.312 1.005.262 1.019.212 1.03.16 1.04q.068.52.11 1.045t.058 1.05q.017.526.007 1.052T76.38 49.3t-.096 1.047-.148 1.042q-.087.518-.199 1.032-.112.515-.25 1.022-.136.508-.298 1.009t-.348.992-.397.974q-.21.483-.443.954-.234.471-.49.93-.257.46-.535.906-.279.446-.58.878t-.62.85-.662.816-.702.784-.739.748-.775.712-.808.672-.841.632-.871.59-.899.546-.924.502q-.469.24-.948.455-.48.216-.97.409-.489.192-.987.36-.499.169-1.005.312-.506.144-1.018.262-.513.119-1.03.212-.518.093-1.04.16-.522.068-1.046.11-.525.042-1.05.058-.526.017-1.052.007t-1.05-.045-1.048-.096-1.042-.148q-.518-.087-1.032-.199t-1.022-.249-1.009-.299q-.5-.162-.992-.348t-.974-.397q-.483-.21-.954-.443-.471-.234-.93-.49-.46-.257-.906-.535-.446-.279-.878-.579t-.849-.621-.817-.662-.784-.702-.748-.739-.711-.775q-.347-.396-.673-.808t-.632-.841q-.305-.428-.59-.871 25.75.443 36.063-23.156"/><path fill="none" stroke="#cfcfcf" stroke-linejoin="round" stroke-width="4.28571" d="M73.032 36.28q.284.442.546.898t.502.924q.239.469.455.948.216.48.409.97t.36.987.312 1.005.262 1.019.212 1.03.16 1.04q.068.52.11 1.045t.058 1.05q.017.526.007 1.052T76.38 49.3t-.096 1.047-.148 1.042q-.087.518-.199 1.032-.112.515-.25 1.022-.136.508-.298 1.009t-.348.992-.397.974q-.21.483-.443.954-.234.471-.49.93-.257.46-.535.906-.279.446-.58.878t-.62.85-.662.816-.702.784-.739.748-.775.712-.808.672-.841.632-.871.59-.899.546-.924.502q-.469.24-.948.455-.48.216-.97.409-.489.192-.987.36-.499.169-1.005.312-.506.144-1.018.262-.513.119-1.03.212-.518.093-1.04.16-.522.068-1.046.11-.525.042-1.05.058-.526.017-1.052.007t-1.05-.045-1.048-.096-1.042-.148q-.518-.087-1.032-.199t-1.022-.249-1.009-.299q-.5-.162-.992-.348t-.974-.397q-.483-.21-.954-.443-.471-.234-.93-.49-.46-.257-.906-.535-.446-.279-.878-.579t-.849-.621-.817-.662-.784-.702-.748-.739-.711-.775q-.347-.396-.673-.808t-.632-.841q-.305-.428-.59-.871 25.75.443 36.063-23.156Z"/><path fill="none" stroke="#000" stroke-linejoin="round" stroke-width="2.4" d="M41.698 74.338q.24.82.528 1.85.293 1.026.62 2.13.332 1.098.674 2.201.341 1.099.659 2.037.259-1.021.527-2.217.274-1.201.513-2.48.24-1.285.469-2.554.234-1.27.434-2.452h3.238q-.699 3.482-1.612 7.066-.908 3.579-1.968 6.797h-2.86q-.7-1.92-1.363-4.029-.66-2.109-1.299-4.233-.64 2.124-1.28 4.233-.639 2.11-1.337 4.029H34.78q-1.06-3.218-1.973-6.797-.908-3.584-1.607-7.066h3.38q.2 1.182.439 2.452t.498 2.553q.264 1.28.532 2.48.269 1.197.552 2.218.361-.982.698-2.08.342-1.1.66-2.198.322-1.103.59-2.124.269-1.02.493-1.816zM54.14 86.716H51.16V76.198h2.979zm.278-13.56q0 .82-.532 1.29-.527.468-1.245.468-.723 0-1.255-.469-.527-.469-.527-1.289t.527-1.289q.532-.474 1.255-.474.718 0 1.245.474.532.469.532 1.29Zm2.523 3.399q.757-.22 1.958-.41 1.202-.191 2.52-.191 1.343 0 2.231.352.889.351 1.407.99.522.64.742 1.52.22.878.22 1.957v5.943H63.04v-5.581q0-1.44-.38-2.036-.382-.601-1.422-.601-.317 0-.678.03t-.64.068v8.12H56.94zm14.32 4.56q0 2.5 2.02 2.5.46 0 .86-.117.4-.122.679-.283v-4.761q-.22-.04-.522-.068-.298-.03-.699-.03-1.181 0-1.762.782-.577.776-.577 1.977Zm6.538 4.282q0 2.578-1.31 3.828-1.308 1.25-4.047 1.25-.962 0-1.924-.17-.957-.171-1.777-.45l.517-2.5q.704.279 1.47.44.772.16 1.753.16 1.28 0 1.807-.56.532-.557.532-1.441v-.376q-.478.22-.991.332-.508.107-1.109.107-2.182 0-3.344-1.289-1.158-1.294-1.158-3.613 0-1.157.362-2.11.361-.951 1.05-1.63.688-.679 1.689-1.05t2.26-.371q.543 0 1.11.054.57.049 1.127.132.562.078 1.07.19.512.107.913.225z"/><path fill="#fff" d="M41.698 74.338q.24.82.528 1.85.293 1.026.62 2.13.332 1.098.674 2.201.341 1.099.659 2.037.259-1.021.527-2.217.274-1.201.513-2.48.24-1.285.469-2.554.234-1.27.434-2.452h3.238q-.699 3.482-1.612 7.066-.908 3.579-1.968 6.797h-2.86q-.7-1.92-1.363-4.029-.66-2.109-1.299-4.233-.64 2.124-1.28 4.233-.639 2.11-1.337 4.029H34.78q-1.06-3.218-1.973-6.797-.908-3.584-1.607-7.066h3.38q.2 1.182.439 2.452t.498 2.553q.264 1.28.532 2.48.269 1.197.552 2.218.361-.982.698-2.08.342-1.1.66-2.198.322-1.103.59-2.124.269-1.02.493-1.816zM54.14 86.716H51.16V76.198h2.979zm.278-13.56q0 .82-.532 1.29-.527.468-1.245.468-.723 0-1.255-.469-.527-.469-.527-1.289t.527-1.289q.532-.474 1.255-.474.718 0 1.245.474.532.469.532 1.29m2.523 3.399q.757-.22 1.958-.41 1.202-.191 2.52-.191 1.343 0 2.231.352.889.351 1.407.99.522.64.742 1.52.22.878.22 1.957v5.943H63.04v-5.581q0-1.44-.38-2.036-.382-.601-1.422-.601-.317 0-.678.03t-.64.068v8.12H56.94zm14.32 4.56q0 2.5 2.02 2.5.46 0 .86-.117.4-.122.679-.283v-4.761q-.22-.04-.522-.068-.298-.03-.699-.03-1.181 0-1.762.782-.577.776-.577 1.977m6.538 4.282q0 2.578-1.31 3.828-1.308 1.25-4.047 1.25-.962 0-1.924-.17-.957-.171-1.777-.45l.517-2.5q.704.279 1.47.44.772.16 1.753.16 1.28 0 1.807-.56.532-.557.532-1.441v-.376q-.478.22-.991.332-.508.107-1.109.107-2.182 0-3.344-1.289-1.158-1.294-1.158-3.613 0-1.157.362-2.11.361-.951 1.05-1.63.688-.679 1.689-1.05t2.26-.371q.543 0 1.11.054.57.049 1.127.132.562.078 1.07.19.512.107.913.225z"/></svg>